<?xml version="1.0" standalone="no"?>
<!DOCTYPE svg PUBLIC "-//W3C//DTD SVG 20010904//EN"
 "http://www.w3.org/TR/2001/REC-SVG-20010904/DTD/svg10.dtd">
<svg version="1.0" xmlns="http://www.w3.org/2000/svg"
 width="512.000000pt" height="512.000000pt" viewBox="0 0 512.000000 512.000000"
 preserveAspectRatio="xMidYMid meet">
<metadata>
Created by potrace 1.11, written by Peter Selinger 2001-2013
</metadata>
<g transform="translate(0.000000,512.000000) scale(0.100000,-0.100000)"
fill="#000000" stroke="none">
<path d="M2126 4961 c-35 -77 -90 -195 -197 -420 -33 -68 -59 -125 -59 -126 0
-2 -30 -65 -66 -142 -37 -76 -92 -194 -124 -263 -32 -69 -80 -172 -108 -230
-27 -58 -66 -141 -87 -185 -21 -44 -55 -117 -76 -162 -22 -46 -56 -120 -78
-165 -21 -46 -52 -112 -69 -148 -16 -36 -51 -110 -77 -165 -26 -55 -80 -170
-120 -255 -40 -85 -94 -200 -120 -255 -26 -55 -78 -167 -117 -250 -39 -82 -94
-201 -124 -264 -30 -62 -54 -115 -54 -116 0 -2 -36 -79 -80 -171 -44 -91 -80
-168 -80 -170 0 -1 -36 -78 -80 -170 -44 -91 -80 -168 -80 -169 0 -2 -30 -65
-66 -141 -66 -139 -106 -225 -109 -234 -1 -3 -27 -59 -59 -125 -65 -134 -90
-194 -85 -199 4 -3 284 -166 359 -208 19 -11 84 -49 143 -85 60 -35 112 -63
117 -61 4 2 36 41 71 88 35 47 120 141 189 210 353 353 802 583 1295 664 128
21 235 28 390 27 142 0 171 -2 290 -17 609 -73 1213 -421 1577 -906 50 -67 64
-77 84 -59 9 9 499 294 545 318 15 7 32 20 39 27 13 17 14 17 -191 444 -32 68
-59 125 -59 128 0 2 -36 79 -80 170 -44 92 -80 168 -80 169 0 2 -24 54 -54
117 -29 62 -68 145 -86 183 -37 78 -319 681 -385 820 -51 109 -106 225 -151
323 -77 163 -109 232 -151 322 -25 52 -58 122 -73 155 -15 33 -49 105 -75 160
-26 55 -81 172 -122 260 -42 88 -92 194 -111 235 -20 41 -36 77 -37 80 -1 3
-20 43 -42 90 -22 47 -56 119 -76 160 -19 41 -53 113 -75 160 -22 47 -59 126
-82 175 -23 50 -57 122 -75 160 -18 39 -51 109 -74 157 -22 48 -41 92 -41 97
0 5 -7 15 -17 22 -13 11 -92 14 -414 15 l-398 0 -35 -75z m617 -1161 c63 -135
136 -289 161 -342 25 -53 59 -125 75 -160 16 -35 52 -112 81 -173 29 -60 65
-137 80 -170 15 -33 51 -109 80 -170 29 -60 80 -171 115 -245 35 -74 88 -188
119 -254 31 -65 56 -119 56 -121 0 -1 29 -63 64 -136 82 -172 214 -454 233
-497 13 -31 13 -32 -4 -24 -37 19 -152 66 -163 67 -3 0 -9 3 -15 7 -21 13
-258 84 -345 103 -99 22 -216 45 -260 50 -30 3 -62 8 -70 10 -47 12 -212 20
-400 19 -203 -1 -276 -5 -374 -19 -22 -4 -52 -8 -66 -9 -124 -16 -339 -66
-485 -113 -104 -33 -287 -103 -302 -116 -19 -14 -16 0 11 52 14 25 38 75 54
111 16 36 43 94 60 130 17 36 54 115 83 175 63 135 121 257 164 350 54 115
100 214 150 320 26 55 60 128 75 161 16 34 48 101 71 150 23 49 59 125 79 169
21 44 90 193 155 330 64 138 130 277 145 310 15 33 54 116 87 185 33 69 70
149 83 179 l24 53 32 -68 c17 -38 83 -179 147 -314z"/>
</g>
</svg>
